<svg xmlns="http://www.w3.org/2000/svg" viewBox="1.834 2.078 8.258 8.686" width="64" height="64">
  <path 
    d="M8.155 3.043c.749-.385 1.254-.643 1.617-.772.077-.028.138-.046.185-.057-.01.047-.025.108-.049.187-.111.369-.345.886-.694 1.652l-2.16 4.744c-.363.796-.61 1.335-.823 1.675a2.04 2.04 0 0 1-.114.168 2.068 2.068 0 0 1-.077-.188c-.136-.378-.263-.957-.448-1.812l-.043-.195-.005-.024a5.382 5.382 0 0 0-.128-.513 1.273 1.273 0 0 0-.294-.508 1.273 1.273 0 0 0-.5-.307 5.382 5.382 0 0 0-.509-.141l-.023-.006-.375-.092c-.77-.189-1.282-.316-1.616-.448a1.77 1.77 0 0 1-.163-.073c.033-.029.079-.065.141-.109.295-.206.764-.449 1.468-.81l4.61-2.371Z" 
    fill="#FC8019"
  />
</svg>
