<svg xmlns="http://www.w3.org/2000/svg" viewBox="0 0 25 25"><symbol xmlns="http://www.w3.org/2000/svg" fill="#0000" viewBox="0 0 25 25" id="b807deb2-2d33-4485-978f-ae669f05542d"><path d="M22.153 9h-18.4c-.377 0-.566 0-.683.117-.117.117-.117.306-.117.683v.998c0 .348 0 .521.057.682.056.16.164.297.381.568l1.237 1.546h0c.162.202.243.303.295.42.052.116.073.244.116.5l.727 4.346c.267 1.595.4 2.393.96 2.866.559.474 1.368.474 2.985.474h6.474c1.588 0 2.382 0 2.937-.46.556-.462.702-1.242.995-2.802l.838-4.47h0c.044-.233.066-.35.114-.457.047-.107.119-.2.263-.389h0l1.21-1.584h0c.204-.267.306-.4.358-.556.053-.156.053-.323.053-.659V9.8c0-.377 0-.566-.117-.683C22.719 9 22.53 9 22.153 9Z" stroke="#909197" stroke-width="1.6" stroke-linecap="round"></path><path d="M7.953 11.5v-4c0-1.87 0-2.804.402-3.5a3 3 0 0 1 1.098-1.098c.696-.402 1.63-.402 3.5-.402v0c1.87 0 2.804 0 3.5.402A3 3 0 0 1 17.551 4c.402.696.402 1.63.402 3.5v4M10.753 14.3v3.4M15.753 14.3v3.4" stroke="#909197" stroke-width="1.6" stroke-linecap="round"></path></symbol><use href="#b807deb2-2d33-4485-978f-ae669f05542d"></use></svg>