<svg class="ppAwf" width="19" height="19" viewBox="0 0 32 32" fill="#686b78" xmlns="http://www.w3.org/2000/svg">
  <!-- Gear outline -->
  <path d="M14.2 2.864l-1.899 1.38a3.57 3.57 0 0 1-2.11.687H7.839a.89.89 0 0 0-.845.613l-.728 2.238a3.58 3.58 0 0 1-1.302 1.79l-1.905 1.385a.89.89 0 0 0-.323.991l.728 2.241a3.6 3.6 0 0 1-.001 2.211l-.727 2.237a.89.89 0 0 0 .323.994l1.906 1.384a3.6 3.6 0 0 1 1.3 1.79l.728 2.24a.89.89 0 0 0 .844.613h2.352c.759 0 1.497.24 2.107.685l1.9 1.381a.89.89 0 0 0 1.048.001l1.9-1.38a3.57 3.57 0 0 1 2.11-.687h2.352a.89.89 0 0 0 .845-.615l.727-2.235a3.6 3.6 0 0 1 1.302-1.794l1.904-1.383a.89.89 0 0 0 .323-.993l-.728-2.239a3.6 3.6 0 0 1 .001-2.213l.727-2.238a.89.89 0 0 0-.324-.992l-1.901-1.383a3.57 3.57 0 0 1-1.302-1.793l-.727-2.236a.89.89 0 0 0-.845-.614h-2.352c-.76 0-1.497-.239-2.107-.685l-1.903-1.382a.89.89 0 0 0-1.047-.001z"/>

  <!-- Top-right circle -->
  <circle cx="19" cy="19.5" r="3.453"/>
  <circle cx="19" cy="19.5" r="0.758" fill="#fff"/>

  <!-- Bottom-left circle -->
  <circle cx="10.545" cy="11.855" r="3.453"/>
  <circle cx="10.545" cy="11.855" r="0.758" fill="#fff"/>

  <!-- Diagonal pencil line -->
  <path d="M17.78 7.882l2.331 1.352-7.591 13.09-2.331-1.352z"/>
</svg>